<svg width="9" height="11" viewBox="0 0 9 11" fill="none" xmlns="http://www.w3.org/2000/svg">
<path d="M6.5 0.5H0.5L1 1V10H8V2.5H6.5V0.5Z" fill="#808080"/>
<path d="M2.5 4C2.22386 4 2 4.22386 2 4.5C2 4.77614 2.22386 5 2.5 5H6.5C6.77614 5 7 4.77614 7 4.5C7 4.22386 6.77614 4 6.5 4H2.5Z" fill="white"/>
<path d="M2.5 6C2.22386 6 2 6.22386 2 6.5C2 6.77614 2.22386 7 2.5 7H4.5C4.77614 7 5 6.77614 5 6.5C5 6.22386 4.77614 6 4.5 6H2.5Z" fill="white"/>
<path d="M2.5 8C2.22386 8 2 8.22386 2 8.5C2 8.77614 2.22386 9 2.5 9H6.5C6.77614 9 7 8.77614 7 8.5C7 8.22386 6.77614 8 6.5 8H2.5Z" fill="white"/>
<path fill-rule="evenodd" clip-rule="evenodd" d="M8.93938 2.06879C8.89915 1.97141 8.84007 1.88293 8.76555 1.80845L7.19177 0.234667C7.04189 0.0845952 6.83854 0.00018692 6.62644 0H0.8C0.587827 0 0.384344 0.0842856 0.234315 0.234315C0.0842856 0.384344 0 0.587827 0 0.8V10.2C0 10.3051 0.0206928 10.4091 0.0608964 10.5061C0.1011 10.6032 0.160027 10.6914 0.234315 10.7657C0.3086 10.84 0.396792 10.8989 0.493853 10.9391C0.590917 10.9793 0.694946 11 0.8 11H8.2C8.30505 11 8.40908 10.9793 8.50615 10.9391C8.60321 10.8989 8.6914 10.84 8.76569 10.7657C8.83997 10.6914 8.8989 10.6032 8.9391 10.5061C8.97931 10.4091 9 10.3051 9 10.2V2.37515L8.5 2.375L9 2.37623L9 2.37515C9.00012 2.27005 8.97952 2.16594 8.93938 2.06879ZM6 2.25C6 2.66421 6.33579 3 6.75 3H8V10H1V1H6V2.25ZM7.54289 2L7 1.45711V2H7.54289Z" fill="#808080"/>
</svg>
