<svg width="12" height="13" viewBox="0 0 12 13" fill="none" xmlns="http://www.w3.org/2000/svg">
<path d="M10.2107 11.139V1.16031C10.2107 1.00794 10.1807 0.857055 10.1224 0.716279C10.0641 0.575504 9.97864 0.447592 9.87089 0.339847C9.76315 0.232102 9.63524 0.146635 9.49446 0.0883235C9.35369 0.0300123 9.2028 0 9.05043 0H1.16031C0.852578 0 0.557448 0.122247 0.339847 0.339847C0.122247 0.557448 0 0.852578 0 1.16031V11.3711C0 11.8019 0.171145 12.2151 0.475786 12.5197C0.780427 12.8243 1.19361 12.9955 1.62444 12.9955H11.5698C11.5741 12.9955 11.5785 12.9947 11.5826 12.993C11.5866 12.9914 11.5903 12.9889 11.5934 12.9858C11.5965 12.9827 11.599 12.979 11.6007 12.9749C11.6023 12.9709 11.6032 12.9665 11.6031 12.9621C11.6031 12.9548 11.6007 12.9478 11.5962 12.942C11.5918 12.9362 11.5855 12.9321 11.5785 12.9302C11.1858 12.8225 10.8394 12.589 10.5924 12.2654C10.3453 11.9418 10.2112 11.5461 10.2107 11.139ZM1.8565 2.78475C1.8565 2.66165 1.9054 2.5436 1.99244 2.45656C2.07948 2.36952 2.19753 2.32062 2.32062 2.32062H4.17712C4.30021 2.32062 4.41827 2.36952 4.50531 2.45656C4.59235 2.5436 4.64125 2.66165 4.64125 2.78475V4.64125C4.64125 4.76434 4.59235 4.88239 4.50531 4.96943C4.41827 5.05647 4.30021 5.10537 4.17712 5.10537H2.32062C2.19753 5.10537 2.07948 5.05647 1.99244 4.96943C1.9054 4.88239 1.8565 4.76434 1.8565 4.64125V2.78475ZM7.89012 10.6749H2.33368C2.08392 10.6749 1.86955 10.4828 1.85708 10.2331C1.85405 10.1703 1.8638 10.1076 1.88573 10.0487C1.90766 9.98986 1.94132 9.93605 1.98466 9.89056C2.028 9.84508 2.08013 9.80887 2.13788 9.78413C2.19562 9.75938 2.2578 9.74662 2.32062 9.74662H7.87706C8.12682 9.74662 8.34119 9.93865 8.35366 10.1884C8.35669 10.2512 8.34694 10.3139 8.32501 10.3727C8.30308 10.4316 8.26942 10.4854 8.22608 10.5309C8.18274 10.5764 8.13061 10.6126 8.07287 10.6374C8.01512 10.6621 7.95294 10.6749 7.89012 10.6749ZM7.89012 8.81837H2.33368C2.08392 8.81837 1.86955 8.62634 1.85708 8.37658C1.85405 8.31382 1.8638 8.25111 1.88573 8.19223C1.90766 8.13336 1.94132 8.07955 1.98466 8.03407C2.028 7.98858 2.08013 7.95237 2.13788 7.92763C2.19562 7.90288 2.2578 7.89012 2.32062 7.89012H7.87706C8.12682 7.89012 8.34119 8.08215 8.35366 8.33191C8.35669 8.39466 8.34694 8.45737 8.32501 8.51625C8.30308 8.57512 8.26942 8.62893 8.22608 8.67442C8.18274 8.7199 8.13061 8.75611 8.07287 8.78086C8.01512 8.8056 7.95294 8.81836 7.89012 8.81837ZM7.89012 6.96187H2.33368C2.08392 6.96187 1.86955 6.76984 1.85708 6.52008C1.85405 6.45733 1.8638 6.39461 1.88573 6.33574C1.90766 6.27686 1.94132 6.22305 1.98466 6.17757C2.028 6.13208 2.08013 6.09587 2.13788 6.07113C2.19562 6.04639 2.2578 6.03363 2.32062 6.03362H7.87706C8.12682 6.03362 8.34119 6.22565 8.35366 6.47541C8.35669 6.53816 8.34694 6.60088 8.32501 6.65975C8.30308 6.71863 8.26942 6.77244 8.22608 6.81792C8.18274 6.8634 8.13061 6.89961 8.07287 6.92436C8.01512 6.9491 7.95294 6.96186 7.89012 6.96187ZM7.89012 5.10537H6.04667C5.79692 5.10537 5.58255 4.91334 5.57008 4.66358C5.56705 4.60083 5.5768 4.53811 5.59873 4.47924C5.62066 4.42036 5.65432 4.36655 5.69766 4.32107C5.741 4.27559 5.79312 4.23938 5.85087 4.21463C5.90862 4.18989 5.97079 4.17713 6.03362 4.17712H7.87706C8.12682 4.17712 8.34119 4.36915 8.35366 4.61891C8.35669 4.68166 8.34694 4.74438 8.32501 4.80325C8.30308 4.86213 8.26942 4.91594 8.22608 4.96142C8.18274 5.00691 8.13061 5.04312 8.07287 5.06786C8.01512 5.0926 7.95294 5.10536 7.89012 5.10537ZM7.89012 3.24887H6.04667C5.79692 3.24887 5.58255 3.05684 5.57008 2.80708C5.56705 2.74433 5.5768 2.68161 5.59873 2.62274C5.62066 2.56386 5.65432 2.51006 5.69766 2.46457C5.741 2.41909 5.79312 2.38288 5.85087 2.35813C5.90862 2.33339 5.97079 2.32063 6.03362 2.32062H7.87706C8.12682 2.32062 8.34119 2.51265 8.35366 2.76241C8.35669 2.82517 8.34694 2.88788 8.32501 2.94676C8.30308 3.00563 8.26942 3.05944 8.22608 3.10492C8.18274 3.15041 8.13061 3.18662 8.07287 3.21136C8.01512 3.23611 7.95294 3.24887 7.89012 3.24887Z" fill="#808080"/>
</svg>
