<svg width="11" height="11" viewBox="0 0 11 11" fill="none" xmlns="http://www.w3.org/2000/svg">
<path fill-rule="evenodd" clip-rule="evenodd" d="M9.90385 2.20086C9.90385 1.89824 9.65625 1.65064 9.35363 1.65064H1.65064C1.34802 1.65064 1.10043 1.89824 1.10043 2.20086V3.30128H9.90385V2.20086ZM8.80342 0.550214C8.80342 0.247596 8.55583 0 8.25321 0H2.75107C2.44845 0 2.20086 0.247596 2.20086 0.550214V1.10043H8.80342V0.550214ZM10.4541 3.8515H0.550214C0.247596 3.8515 0 4.09909 0 4.40171V10.4541C0 10.7567 0.247596 11.0043 0.550214 11.0043H10.4541C10.7567 11.0043 11.0043 10.7567 11.0043 10.4541V4.40171C11.0043 4.09909 10.7567 3.8515 10.4541 3.8515ZM7.70299 7.70299C7.70299 8.00561 7.4554 8.25321 7.15278 8.25321H3.8515C3.54888 8.25321 3.30128 8.00561 3.30128 7.70299V6.60257H3.8515V7.70299H7.15278V6.60257H7.70299V7.70299Z" fill="#808080"/>
</svg>
