<svg width="10" height="12" viewBox="0 0 10 12" fill="none" xmlns="http://www.w3.org/2000/svg">
<path d="M9.0572 11.1473H0.696707C0.508016 11.1473 0.344725 11.0802 0.206835 10.9459C0.068945 10.8117 0 10.6466 0 10.4506V0.707593C0 0.511644 0.068945 0.346539 0.206835 0.212278C0.344725 0.0780167 0.508016 0.0108861 0.696707 0.0108861H5.57366V3.84278C5.57366 3.93712 5.60813 4.01877 5.67708 4.08771C5.74602 4.15666 5.82767 4.19113 5.92201 4.19113H9.7539V10.4506C9.7539 10.6466 9.68677 10.8117 9.55251 10.9459C9.41825 11.0802 9.25314 11.1473 9.0572 11.1473ZM8.01213 9.0572H7.66378V6.61872C7.66378 6.52437 7.62931 6.44273 7.56036 6.37378C7.49142 6.30484 7.40977 6.27037 7.31543 6.27037H6.61872C6.52437 6.27037 6.44273 6.30484 6.37378 6.37378C6.30484 6.44273 6.27037 6.52437 6.27037 6.61872V9.0572H5.57366V5.22531C5.57366 5.13096 5.53919 5.04931 5.47024 4.98037C5.4013 4.91142 5.31965 4.87695 5.22531 4.87695H4.5286C4.43425 4.87695 4.35261 4.91142 4.28366 4.98037C4.21472 5.04931 4.18024 5.13096 4.18024 5.22531V9.0572H3.48354V7.31543C3.48354 7.22108 3.44906 7.13944 3.38012 7.07049C3.31117 7.00155 3.22953 6.96707 3.13518 6.96707H2.43848C2.34413 6.96707 2.26248 7.00155 2.19354 7.07049C2.12459 7.13944 2.09012 7.22108 2.09012 7.31543V9.0572H1.74177C1.64742 9.0572 1.56578 9.09167 1.49683 9.16061C1.42789 9.22956 1.39341 9.3112 1.39341 9.40555C1.39341 9.4999 1.42789 9.58154 1.49683 9.65049C1.56578 9.71943 1.64742 9.7539 1.74177 9.7539H8.01213C8.11374 9.7539 8.1972 9.71943 8.26251 9.65049C8.32783 9.58154 8.36049 9.4999 8.36049 9.40555C8.36049 9.3112 8.32602 9.22956 8.25707 9.16061C8.18813 9.09167 8.10648 9.0572 8.01213 9.0572ZM6.27037 0C6.45906 0 6.61872 0.0653163 6.74935 0.195949L9.54707 2.99366C9.68496 3.13155 9.7539 3.29847 9.7539 3.49442H6.27037V0Z" fill="#808080"/>
</svg>
