<svg width="12" height="12" viewBox="0 0 12 12" fill="none" xmlns="http://www.w3.org/2000/svg">
<circle cx="5" cy="5" r="4" fill="#808080"/>
<path d="M4 5.77994C4 6.20891 4.3 6.55989 4.665 6.55989H5.415C5.735 6.55989 5.995 6.25348 5.995 5.88022C5.995 5.47354 5.835 5.32869 5.6 5.23398L4.4 4.76602C4.16 4.67131 4 4.52646 4 4.11978C4 3.74652 4.26 3.44011 4.58 3.44011H5.33C5.7 3.44568 6 3.79109 6 4.22006M5 6.58774V7M5 3V3.43454" stroke="white" stroke-linecap="round" stroke-linejoin="round"/>
<path d="M6.4955 9.94895C6.94595 10.5846 7.68168 11 8.52252 11C9.88889 11 11 9.88889 11 8.52252C11 7.69169 10.5896 6.95596 9.96396 6.50551M4.999 8.998C6.0596 8.998 7.07676 8.57668 7.82672 7.82672C8.57668 7.07676 8.998 6.0596 8.998 4.999C8.998 3.9384 8.57668 2.92124 7.82672 2.17128C7.07676 1.42132 6.0596 1 4.999 1C3.9384 1 2.92124 1.42132 2.17128 2.17128C1.42132 2.92124 1 3.9384 1 4.999C1 6.0596 1.42132 7.07676 2.17128 7.82672C2.92124 8.57668 3.9384 8.998 4.999 8.998V8.998Z" stroke="#929292" stroke-linecap="round" stroke-linejoin="round"/>
</svg>
