<svg width="12" height="13" viewBox="0 0 12 13" fill="none" xmlns="http://www.w3.org/2000/svg">
<path d="M11.8467 7.7739L10.7701 7.15219C10.8788 6.56587 10.8788 5.96438 10.7701 5.37805L11.8467 4.75634C11.9706 4.68558 12.0262 4.539 11.9857 4.40253C11.7052 3.50282 11.2275 2.68904 10.6033 2.01173C10.5073 1.90811 10.3506 1.88284 10.2293 1.9536L9.15266 2.57531C8.70028 2.18611 8.17966 1.88537 7.61608 1.68824V0.44735C7.61608 0.305823 7.51752 0.181987 7.37852 0.15166C6.45101 -0.0555762 5.50076 -0.0454672 4.61874 0.15166C4.47974 0.181987 4.38118 0.305823 4.38118 0.44735V1.69077C3.82012 1.89042 3.2995 2.19117 2.8446 2.57784L1.77051 1.95613C1.64667 1.88537 1.49251 1.90811 1.39647 2.01426C0.772235 2.68904 0.294581 3.50282 0.0140546 4.40505C-0.0289089 4.54153 0.0292182 4.68811 0.153054 4.75887L1.22967 5.38058C1.121 5.96691 1.121 6.5684 1.22967 7.15472L0.153054 7.77643C0.0292182 7.84719 -0.0263817 7.99377 0.0140546 8.13025C0.294581 9.02995 0.772235 9.84374 1.39647 10.521C1.49251 10.6247 1.6492 10.6499 1.77051 10.5792L2.84712 9.95746C3.2995 10.3467 3.82012 10.6474 4.3837 10.8445V12.0879C4.3837 12.2295 4.48227 12.3533 4.62127 12.3836C5.54877 12.5909 6.49903 12.5808 7.38104 12.3836C7.52004 12.3533 7.61861 12.2295 7.61861 12.0879V10.8445C8.17966 10.6449 8.70028 10.3441 9.15519 9.95746L10.2318 10.5792C10.3556 10.6499 10.5098 10.6272 10.6058 10.521C11.2301 9.84626 11.7077 9.03248 11.9883 8.13025C12.0262 7.99125 11.9706 7.84467 11.8467 7.7739ZM5.99863 8.28694C4.8841 8.28694 3.97681 7.37965 3.97681 6.26512C3.97681 5.1506 4.8841 4.24331 5.99863 4.24331C7.11315 4.24331 8.02044 5.1506 8.02044 6.26512C8.02044 7.37965 7.11315 8.28694 5.99863 8.28694Z" fill="#808080"/>
</svg>
