<svg width="18" height="63" viewBox="0 0 18 63" fill="none" xmlns="http://www.w3.org/2000/svg">
<path d="M1 13H18H1ZM18 18.5H6C2.96243 18.5 0.5 16.0376 0.5 13H1.5C1.5 15.4853 3.51472 17.5 6 17.5H18V18.5ZM6 18.5C2.96243 18.5 0.5 16.0376 0.5 13H1.5C1.5 15.4853 3.51472 17.5 6 17.5V18.5ZM18 13V18V13Z" fill="#E5E5E5"/>
<path d="M1 1L0.999998 57" stroke="#E5E5E5" stroke-linecap="round"/>
<path d="M1 35H18H1ZM18 40.5H6C2.96243 40.5 0.5 38.0376 0.5 35H1.5C1.5 37.4853 3.51472 39.5 6 39.5H18V40.5ZM6 40.5C2.96243 40.5 0.5 38.0376 0.5 35H1.5C1.5 37.4853 3.51472 39.5 6 39.5V40.5ZM18 35V40V35Z" fill="#E5E5E5"/>
<path d="M1 57H18H1ZM18 62.5H6C2.96243 62.5 0.5 60.0376 0.5 57H1.5C1.5 59.4853 3.51472 61.5 6 61.5H18V62.5ZM6 62.5C2.96243 62.5 0.5 60.0376 0.5 57H1.5C1.5 59.4853 3.51472 61.5 6 61.5V62.5ZM18 57V62V57Z" fill="#E5E5E5"/>
</svg>
