<svg width="12" height="12" viewBox="0 0 12 12" fill="none" xmlns="http://www.w3.org/2000/svg">
<path d="M5.98841 11.9768C9.29572 11.9768 11.9768 9.29572 11.9768 5.98841C11.9768 2.6811 9.29572 0 5.98841 0C2.6811 0 0 2.6811 0 5.98841C0 9.29572 2.6811 11.9768 5.98841 11.9768Z" fill="#848484"/>
<path d="M5.95837 2.20093L4.26739 3.19164L5.95837 4.18272L7.68116 3.19164L5.95837 2.20093ZM6.23646 7.49094V9.47273L8.53338 8.16239V6.18023L6.23646 7.49094ZM7.95925 3.8148V5.79697L6.23608 6.78805V4.80589L7.95925 3.8148ZM3.81152 5.79697L5.53469 6.78805V4.80589L3.81152 3.8148V5.79697ZM3.81152 8.48202L5.53469 9.47273V7.49094L3.81152 6.50023V8.48165V8.48202Z" fill="white"/>
</svg>
