<svg width="10" height="13" viewBox="0 0 10 13" fill="none" xmlns="http://www.w3.org/2000/svg">
<path d="M9.33102 2.59883L6.90793 0.173255C6.79655 0.0618768 6.64557 0 6.48716 0H6.33618V3.16809H9.50428V3.01711C9.50428 2.86118 9.4424 2.7102 9.33102 2.59883ZM5.54416 3.3661V0H0.594017C0.264833 0 0 0.264833 0 0.594017V12.0784C0 12.4075 0.264833 12.6724 0.594017 12.6724H8.91026C9.23944 12.6724 9.50428 12.4075 9.50428 12.0784V3.96011H6.13818C5.81147 3.96011 5.54416 3.69281 5.54416 3.3661ZM1.58405 1.78205C1.58405 1.67265 1.67265 1.58405 1.78205 1.58405H3.76211C3.87151 1.58405 3.96011 1.67265 3.96011 1.78205V2.17806C3.96011 2.28746 3.87151 2.37607 3.76211 2.37607H1.78205C1.67265 2.37607 1.58405 2.28746 1.58405 2.17806V1.78205ZM1.58405 3.76211V3.3661C1.58405 3.2567 1.67265 3.16809 1.78205 3.16809H3.76211C3.87151 3.16809 3.96011 3.2567 3.96011 3.3661V3.76211C3.96011 3.87151 3.87151 3.96011 3.76211 3.96011H1.78205C1.67265 3.96011 1.58405 3.87151 1.58405 3.76211ZM5.14815 10.2933V10.8903C5.14815 10.9997 5.05954 11.0883 4.95014 11.0883H4.55413C4.44473 11.0883 4.35613 10.9997 4.35613 10.8903V10.2891C4.07669 10.2748 3.80493 10.1772 3.5797 10.0082C3.48317 9.93568 3.47822 9.79114 3.56559 9.70773L3.85641 9.43027C3.92497 9.36493 4.02694 9.36196 4.10713 9.4122C4.20292 9.4721 4.31157 9.50428 4.42444 9.50428H5.12018C5.28106 9.50428 5.41224 9.35775 5.41224 9.17781C5.41224 9.03055 5.32289 8.90085 5.19518 8.86274L4.08139 8.5286C3.62128 8.39049 3.29977 7.94894 3.29977 7.45467C3.29977 6.84778 3.77127 6.35475 4.35588 6.33915V5.74217C4.35588 5.63277 4.44449 5.54416 4.55388 5.54416H4.9499C5.05929 5.54416 5.1479 5.63277 5.1479 5.74217V6.34336C5.42734 6.35772 5.6991 6.45499 5.92433 6.62428C6.02086 6.6968 6.02581 6.84135 5.93844 6.92476L5.64762 7.20221C5.57906 7.26755 5.47709 7.27052 5.39689 7.22028C5.30111 7.16013 5.19245 7.12821 5.07959 7.12821H4.38385C4.22297 7.12821 4.09179 7.27473 4.09179 7.45467C4.09179 7.60194 4.18114 7.73163 4.30885 7.76975L5.42263 8.10388C5.88275 8.24199 6.20426 8.68354 6.20426 9.17781C6.20426 9.78495 5.73276 10.2777 5.14815 10.2933Z" fill="#808080"/>
</svg>
