<svg width="11" height="13" viewBox="0 0 11 13" fill="none" xmlns="http://www.w3.org/2000/svg">
<path d="M5.5025 5.79407C6.06273 5.79407 6.61039 5.62794 7.0762 5.31669C7.54202 5.00545 7.90508 4.56306 8.11947 4.04547C8.33386 3.52788 8.38995 2.95835 8.28066 2.40888C8.17136 1.85941 7.90158 1.35469 7.50544 0.958551C7.1093 0.562408 6.60458 0.292631 6.05511 0.183335C5.50565 0.074039 4.93611 0.130134 4.41852 0.344525C3.90093 0.558916 3.45855 0.921975 3.1473 1.38779C2.83605 1.85361 2.66992 2.40126 2.66992 2.96149C2.66992 3.71274 2.96835 4.43321 3.49957 4.96443C4.03078 5.49564 4.75126 5.79407 5.5025 5.79407Z" fill="#828282"/>
<path d="M9.7513 12.8759C9.93911 12.8759 10.1192 12.8012 10.252 12.6684C10.3848 12.5356 10.4594 12.3555 10.4594 12.1677C10.4594 10.853 9.93719 9.59219 9.00757 8.66257C8.07795 7.73295 6.81711 7.21069 5.50243 7.21069C4.18774 7.21069 2.92691 7.73295 1.99729 8.66257C1.06767 9.59219 0.54541 10.853 0.54541 12.1677C0.54541 12.3555 0.620018 12.5356 0.752821 12.6684C0.885624 12.8012 1.06574 12.8759 1.25356 12.8759H9.7513Z" fill="#828282"/>
</svg>
