<svg xmlns="http://www.w3.org/2000/svg" viewBox="0 0 13 14" fill="none">
    <path d="M10.5935 8.95625H8.37471M9.48096 7.875V10.0937M12.4497 8.96875C12.4497 9.525 12.2935 10.05 12.0185 10.5C11.7568 10.9394 11.3852 11.3031 10.9403 11.5552C10.4953 11.8072 9.99236 11.939 9.48096 11.9375C8.96982 11.9377 8.46735 11.8054 8.02261 11.5534C7.57787 11.3015 7.20606 10.9385 6.94346 10.5C6.6604 10.0395 6.51108 9.5093 6.51221 8.96875C6.51221 7.33125 7.84346 6 9.48096 6C11.1185 6 12.4497 7.33125 12.4497 8.96875V8.96875Z" stroke="currentColor" stroke-miterlimit="10" stroke-linecap="round" stroke-linejoin="round"/>
    <path d="M11.8625 2.2625V3.65C11.8625 4.15625 11.5438 4.7875 11.2313 5.10625L10.1313 6.075C9.91832 6.02434 9.70012 5.99916 9.48125 6C7.84375 6 6.5125 7.33125 6.5125 8.96875C6.5125 9.525 6.66875 10.05 6.94375 10.5C7.175 10.8875 7.49375 11.2187 7.88125 11.4562V11.6687C7.88125 12.05 7.63125 12.5563 7.3125 12.7438L6.43125 13.3125C5.6125 13.8188 4.475 13.25 4.475 12.2375V8.89375C4.475 8.45 4.21875 7.88125 3.96875 7.56875L1.56875 5.04375C1.25625 4.725 1 4.15625 1 3.78125V2.325C1 1.56875 1.56875 1 2.2625 1H10.6C11.2938 1 11.8625 1.56875 11.8625 2.2625Z" stroke="currentColor" stroke-miterlimit="10" stroke-linecap="round" stroke-linejoin="round"/>
</svg>